<?xml version="1.0" standalone="no"?><!DOCTYPE svg PUBLIC "-//W3C//DTD SVG 1.1//EN" "http://www.w3.org/Graphics/SVG/1.1/DTD/svg11.dtd"><svg t="1763976284964" class="icon" viewBox="0 0 1024 1024" version="1.1" xmlns="http://www.w3.org/2000/svg" p-id="9455" width="120" height="120" xmlns:xlink="http://www.w3.org/1999/xlink"><path d="M931.328 173.095385c107.795692 109.371077 107.795692 286.011077-0.078769 395.500307l-43.835077 44.347077-61.636923 62.385231-1.299693-1.299692-237.804307 229.454769a48.561231 48.561231 0 0 1-6.498462 5.238154l-0.551384 0.275692-2.048 1.772308c-37.494154 29.223385-91.963077 28.081231-127.763693-3.544616l-5.198769-4.962461-354.461538-365.843692A264.270769 264.270769 0 0 1 15.753846 351.625846c0-69.553231 26.387692-135.246769 74.318769-184.753231 97.043692-100.155077 264.743385-100.155077 361.708308-0.196923l43.244308 44.150154 2.323692 2.441846 40.054154-40.329846a276.676923 276.676923 0 0 1 393.924923 0.157539zM152.300308 227.131077A177.782154 177.782154 0 0 0 102.4 351.704615a177.742769 177.742769 0 0 0 49.900308 124.337231l354.461538 365.804308c4.253538 4.411077 13.154462 4.568615 18.786462-0.472616l2.48123-1.890461 0.905847-0.748308 234.653538-226.382769-120.989538-122.486154-80.068923 81.841231a148.086154 148.086154 0 0 1-204.563693 5.710769l-6.144-5.907692A149.740308 149.740308 0 0 1 351.704615 361.550769l84.716308-86.567384-3.702154-3.859693-43.047384-43.913846c-63.015385-64.984615-174.434462-64.984615-237.410462 0z m446.700307 6.774154l-41.787077 42.023384 0.748308 0.748308-27.648 26.387692-6.301538 6.380308-110.355693 112.679385a63.172923 63.172923 0 0 0-0.118153 88.615384c24.182154 24.379077 63.251692 24.379077 87.433846 0l141.193846-144.226461L669.538462 393.846154l17.132307 17.329231 0.393846 0.393846 138.712616 140.484923 43.835077-44.386462a195.505231 195.505231 0 0 0 0-273.723077 189.991385 189.991385 0 0 0-270.611693 0z" fill="#d81e06" p-id="9456"></path></svg>